<svg xmlns="http://www.w3.org/2000/svg" viewBox="0 0 128 128">
  <path fill="#44A833" d="M64 0C28.654 0 0 28.654 0 64c0 35.346 28.654 64 64 64 35.346 0 64-28.654 64-64C128 28.654 99.346 0 64 0zm16.976 100.856c-6.752 3.654-14.409 5.729-22.517 5.729-8.107 0-15.765-2.075-22.517-5.729-11.652-6.304-20.101-17.561-22.563-30.899-.2-1.087-.366-2.189-.498-3.306-.132-1.117-.231-2.249-.297-3.394-.066-1.146-.099-2.305-.099-3.477 0-1.171.033-2.33.099-3.477.066-1.146.165-2.277.297-3.394.132-1.117.298-2.219.498-3.306 2.462-13.338 10.911-24.595 22.563-30.899 6.752-3.654 14.41-5.729 22.517-5.729 8.108 0 15.765 2.075 22.517 5.729 11.652 6.304 20.101 17.561 22.563 30.899.2 1.087.366 2.189.498 3.306.132 1.117.231 2.249.297 3.394.066 1.146.099 2.305.099 3.477 0 1.171-.033 2.33-.099 3.477-.066 1.146-.165 2.277-.297 3.394-.132 1.117-.298 2.219-.498 3.306-2.462 13.338-10.911 24.595-22.563 30.899z"/>
  <path fill="#44A833" d="M64 25.625c-21.145 0-38.375 17.23-38.375 38.375S42.855 102.375 64 102.375c21.145 0 38.375-17.23 38.375-38.375S85.145 25.625 64 25.625zm0 69.75c-17.366 0-31.5-14.134-31.5-31.5S46.634 32.375 64 32.375s31.5 14.134 31.5 31.5-14.134 31.5-31.5 31.5z"/>
</svg> 